<svg xmlns="http://www.w3.org/2000/svg" width="107.754" height="108.126" viewBox="0 0 107.754 108.126"><g transform="translate(0.945 -6.292)"><g transform="translate(78.117 1.342) rotate(45)"><g transform="translate(39.142 46.885)" fill="#fff" stroke-miterlimit="10"><path d="M 7.874677181243896 31.20178604125977 L 1.199997305870056 25.23846435546875 L 1.199997305870056 1.987710952758789 L 7.874677181243896 5.501003742218018 L 7.874677181243896 31.20178604125977 Z" stroke="none"/><path d="M 2.399997234344482 3.975429534912109 L 2.399997234344482 24.70140075683594 L 6.67467737197876 28.52050399780273 L 6.67467737197876 6.225454330444336 L 2.399997234344482 3.975429534912109 M -2.86102294921875e-06 0 L 9.074677467346191 4.776557922363281 L 9.074677467346191 33.883056640625 L -2.86102294921875e-06 25.7755184173584 L -2.86102294921875e-06 0 Z" stroke="none" fill="#00b0f0"/></g><g transform="translate(0 46.238)" fill="#fff" stroke-miterlimit="10"><path d="M 1.199997305870056 31.20178604125977 L 1.199997305870056 5.501003742218018 L 7.874677181243896 1.987710952758789 L 7.874677181243896 25.23846435546875 L 1.199997305870056 31.20178604125977 Z" stroke="none"/><path d="M 6.67467737197876 3.975429534912109 L 2.399997234344482 6.225454330444336 L 2.399997234344482 28.52050399780273 L 6.67467737197876 24.70140075683594 L 6.67467737197876 3.975429534912109 M 9.074677467346191 0 L 9.074677467346191 25.7755184173584 L -2.86102294921875e-06 33.883056640625 L -2.86102294921875e-06 4.776557922363281 L 9.074677467346191 0 Z" stroke="none" fill="#00b0f0"/></g><path d="M0,0,12.972,28.5a1.823,1.823,0,0,0,3.3.032L29.946,0Z" transform="translate(9.777 69.494)" fill="#fa6400"/><path d="M0,0,10.168,23.81,20.872,0Z" transform="translate(13.993 70.701)" fill="#fff"/><path d="M0,0,10.168,23.81,20.872,0Z" transform="translate(14.635 62.283)" fill="rgba(250,100,0,0.27)"/><g transform="translate(6.999 0)" fill="#fff" stroke-miterlimit="10"><path d="M 32.37629699707031 72.06066131591797 L 1.19999885559082 72.06066131591797 L 1.19999885559082 37.24646759033203 C 1.19999885559082 32.34296035766602 2.005578994750977 27.50450897216797 3.594358921051025 22.86553001403809 C 5.183138847351074 18.22653961181641 7.512959003448486 13.91011905670166 10.51909923553467 10.03616905212402 L 16.78814888000488 1.95738673210144 L 23.05719947814941 10.03616905212402 C 26.06333923339844 13.91011905670166 28.39315795898438 18.22653961181641 29.9819393157959 22.86553001403809 C 31.57071876525879 27.50450897216797 32.37629699707031 32.34296035766602 32.37629699707031 37.24646759033203 L 32.37629699707031 72.06066131591797 Z" stroke="none"/><path d="M 31.17630195617676 70.86066436767578 L 31.17630195617676 37.24646759033203 C 31.17630195617676 32.47552871704102 30.39250183105469 27.76789855957031 28.84667205810547 23.25434494018555 C 27.30085563659668 18.74077606201172 25.03402519226074 14.54105186462402 22.1091480255127 10.77183723449707 L 16.78814888000488 3.914792776107788 L 11.46714878082275 10.77183723449707 C 8.542271614074707 14.54105186462402 6.27544116973877 18.74077606201172 4.729625701904297 23.25434494018555 C 3.183794975280762 27.76789855957031 2.399995088577271 32.47552871704102 2.399995088577271 37.24646759033203 L 2.399995088577271 70.86066436767578 L 31.17630195617676 70.86066436767578 M 33.57630157470703 73.26066589355469 L -4.966148935636738e-06 73.26066589355469 L -4.966148935636738e-06 37.24646759033203 C -4.966148935636738e-06 27.12702178955078 3.367225885391235 17.29523658752441 9.571056365966797 9.300498008728027 L 16.78814888000488 6.055156973161502e-06 L 24.00524139404297 9.300498008728027 C 30.20907211303711 17.29523658752441 33.57630157470703 27.12702178955078 33.57630157470703 37.24646759033203 L 33.57630157470703 73.26066589355469 Z" stroke="none" fill="#00b0f0"/></g><ellipse cx="5.899" cy="5.952" rx="5.899" ry="5.952" transform="translate(18.21 25.821)" fill="#fff" stroke="#00b0f0" stroke-miterlimit="10" stroke-width="2.4"/></g><path d="M0,0V60.36" transform="translate(48.151 112.296) rotate(-135)" fill="none" stroke="#00b0f0" stroke-linecap="round" stroke-miterlimit="10" stroke-width="3" opacity="0.232"/><path d="M0,0V60.36" transform="translate(1.176 65.795) rotate(-135)" fill="none" stroke="#00b0f0" stroke-linecap="round" stroke-miterlimit="10" stroke-width="3" opacity="0.232"/><path d="M0,0V25.071" transform="translate(70.477 101.252) rotate(-135)" fill="none" stroke="#00b0f0" stroke-linecap="round" stroke-miterlimit="10" stroke-width="3" opacity="0.232"/><path d="M0,23.932V0" transform="translate(12.457 41.621) rotate(-135)" fill="none" stroke="#00b0f0" stroke-linecap="round" stroke-miterlimit="10" stroke-width="3" opacity="0.232"/></g></svg>