<svg xmlns="http://www.w3.org/2000/svg" width="90" height="69" viewBox="0 0 90 69"><g transform="translate(-513 -349)"><g transform="translate(512.834 343.787)"><g transform="translate(0.166 17.213)" fill="none" stroke="#00b0f0" stroke-miterlimit="10" stroke-width="3"><rect width="81" height="51" rx="2" stroke="none"/><rect x="1.5" y="1.5" width="78" height="48" rx="0.5" fill="none"/></g><path d="M0,0,37.336,35.851,74.459,0Z" transform="translate(2.782 18.785)" fill="none" stroke="#00b0f0" stroke-linejoin="round" stroke-miterlimit="10" stroke-width="3"/><path d="M24.784,0,.5,22.751" transform="translate(4.35 43.604)" fill="none" stroke="#00b0f0" stroke-miterlimit="10" stroke-width="3"/><path d="M22.751,0,0,27.578" transform="translate(50.353 66.356) rotate(-90)" fill="none" stroke="#00b0f0" stroke-miterlimit="10" stroke-width="3"/><circle cx="13.5" cy="13.5" r="13.5" transform="translate(63.166 5.213)" fill="#fff"/><text transform="translate(64.166 28.213)" fill="#00b0f0" font-size="24" font-family="Helvetica-Bold, Helvetica" font-weight="700"><tspan x="0" y="0">@</tspan></text></g><circle cx="11" cy="11" r="11" transform="translate(578 395)" fill="#ea5959" stroke="#fff" stroke-miterlimit="10" stroke-width="2"/><g transform="translate(586 403)"><path d="M0,0,5.646,5.646" transform="translate(0 0)" fill="none" stroke="#fff" stroke-linecap="round" stroke-miterlimit="10" stroke-width="0.8"/><path d="M0,0,5.646,5.646" transform="translate(5.945 0) rotate(90)" fill="none" stroke="#fff" stroke-linecap="round" stroke-miterlimit="10" stroke-width="0.8"/></g></g></svg>